<?xml version="1.0" encoding="UTF-8" standalone="no"?>
<svg
   xmlns:dc="http://purl.org/dc/elements/1.1/"
   xmlns:cc="http://creativecommons.org/ns#"
   xmlns:rdf="http://www.w3.org/1999/02/22-rdf-syntax-ns#"
   xmlns:svg="http://www.w3.org/2000/svg"
   xmlns="http://www.w3.org/2000/svg"
   viewBox="0 0 502.88 114.22667"
   height="114.22667"
   width="502.88"
   xml:space="preserve"
   id="svg2"
   version="1.1"><metadata
     id="metadata8"><rdf:RDF><cc:Work
         rdf:about=""><dc:format>image/svg+xml</dc:format><dc:type
           rdf:resource="http://purl.org/dc/dcmitype/StillImage" /></cc:Work></rdf:RDF></metadata><defs
     id="defs6" /><g
     transform="matrix(1.3333333,0,0,-1.3333333,0,114.22667)"
     id="g10"><g
       transform="scale(0.1)"
       id="g12"><path
         id="path14"
         style="fill:#0a8137;fill-opacity:1;fill-rule:nonzero;stroke:none"
         d="m 932.504,497.125 c 0,12.266 7.851,19.141 18.402,19.141 10.555,0 18.407,-6.875 18.407,-19.141 V 357.758 c 0,-12.266 -7.852,-19.141 -18.407,-19.141 -10.551,0 -18.402,6.875 -18.402,19.141 v 139.367" /><path
         id="path16"
         style="fill:#0a8137;fill-opacity:1;fill-rule:nonzero;stroke:none"
         d="m 990.41,452.465 c 0,11.777 7.363,19.629 17.67,19.629 9.08,0 14.97,-4.903 16.19,-13 6.87,9.566 17.42,14.476 34.11,14.476 27.72,0 48.33,-17.668 48.33,-47.597 v -67.727 c 0,-11.777 -7.36,-19.629 -17.66,-19.629 -10.31,0 -17.67,7.852 -17.67,19.629 v 61.59 c 0,16.437 -10.31,24.289 -23.06,24.289 -14.48,0 -22.58,-10.551 -22.58,-24.289 v -61.59 c 0,-11.777 -7.36,-19.629 -17.66,-19.629 -10.307,0 -17.67,7.852 -17.67,19.629 v 94.219" /><path
         id="path18"
         style="fill:#0a8137;fill-opacity:1;fill-rule:nonzero;stroke:none"
         d="m 1184.49,441.184 c -18.4,0 -27.48,-19.387 -27.48,-36.071 0,-16.437 9.08,-35.578 27.48,-35.578 19.39,0 27.73,19.629 27.73,36.809 0,17.172 -8.84,34.84 -27.73,34.84 z m 63.06,-82.938 c 0,-11.777 -7.36,-19.629 -17.67,-19.629 -9.81,0 -15.46,5.403 -17.66,14.727 -6.62,-10.801 -20.36,-16.196 -32.39,-16.196 -35.58,0 -58.15,33.125 -58.15,66.497 0,34.347 18.89,69.925 56.92,69.925 12.27,0 24.3,-4.172 33.62,-12.265 v 48.086 c 0,11.777 7.36,19.629 17.66,19.629 10.31,0 17.67,-7.852 17.67,-19.629 V 358.246" /><path
         id="path20"
         style="fill:#0a8137;fill-opacity:1;fill-rule:nonzero;stroke:none"
         d="m 1351.59,417.133 c -1.97,15.461 -11.78,26.992 -28.22,26.992 -15.7,0 -26.26,-12.02 -27.97,-26.992 z m -55.46,-23.555 c 2.46,-17.418 16.94,-25.515 33.37,-25.515 18.16,0 30.68,14.234 40,14.234 7.6,0 14.47,-7.609 14.47,-15.211 0,-15.215 -31.4,-29.938 -57.66,-29.938 -39.75,0 -66.24,28.95 -66.24,67.965 0,35.825 26,68.457 63.3,68.457 38.28,0 63.55,-34.843 63.55,-64.289 0,-10.547 -4.66,-15.703 -15.46,-15.703 h -75.33" /><path
         id="path22"
         style="fill:#0a8137;fill-opacity:1;fill-rule:nonzero;stroke:none"
         d="m 1462.49,369.535 c 18.4,0 27.48,19.141 27.48,35.578 0,16.684 -9.08,36.071 -27.48,36.071 -18.9,0 -27.73,-17.668 -27.73,-34.84 0,-17.18 8.35,-36.809 27.73,-36.809 z m -63.06,82.93 c 0,11.777 7.36,19.629 17.66,19.629 9.82,0 15.46,-5.395 17.67,-14.715 6.63,10.789 20.37,16.191 33.62,16.191 38.03,0 56.92,-35.578 56.92,-69.925 0,-33.372 -22.58,-66.497 -58.15,-66.497 -11.04,0 -23.06,4.172 -32.39,12.27 v -43.184 c 0,-11.777 -7.36,-19.629 -17.67,-19.629 -10.3,0 -17.66,7.852 -17.66,19.629 v 146.231" /><path
         id="path24"
         style="fill:#0a8137;fill-opacity:1;fill-rule:nonzero;stroke:none"
         d="m 1624.18,417.133 c -1.96,15.461 -11.77,26.992 -28.21,26.992 -15.71,0 -26.26,-12.02 -27.97,-26.992 z m -55.45,-23.555 c 2.46,-17.418 16.93,-25.515 33.37,-25.515 18.16,0 30.67,14.234 39.99,14.234 7.61,0 14.48,-7.609 14.48,-15.211 0,-15.215 -31.4,-29.938 -57.66,-29.938 -39.75,0 -66.24,28.95 -66.24,67.965 0,35.825 26,68.457 63.3,68.457 38.27,0 63.55,-34.843 63.55,-64.289 0,-10.547 -4.67,-15.703 -15.46,-15.703 h -75.33" /><path
         id="path26"
         style="fill:#0a8137;fill-opacity:1;fill-rule:nonzero;stroke:none"
         d="m 1672.03,452.465 c 0,11.777 7.36,19.629 17.66,19.629 9.08,0 14.97,-4.903 16.2,-13 6.87,9.566 17.42,14.476 34.1,14.476 27.73,0 48.34,-17.668 48.34,-47.597 v -67.727 c 0,-11.777 -7.36,-19.629 -17.67,-19.629 -10.3,0 -17.66,7.852 -17.66,19.629 v 61.59 c 0,16.437 -10.31,24.289 -23.07,24.289 -14.47,0 -22.57,-10.551 -22.57,-24.289 v -61.59 c 0,-11.777 -7.36,-19.629 -17.67,-19.629 -10.3,0 -17.66,7.852 -17.66,19.629 v 94.219" /><path
         id="path28"
         style="fill:#0a8137;fill-opacity:1;fill-rule:nonzero;stroke:none"
         d="m 1866.11,441.184 c -18.4,0 -27.48,-19.387 -27.48,-36.071 0,-16.437 9.08,-35.578 27.48,-35.578 19.39,0 27.73,19.629 27.73,36.809 0,17.172 -8.84,34.84 -27.73,34.84 z m 63.06,-82.938 c 0,-11.777 -7.36,-19.629 -17.67,-19.629 -9.81,0 -15.46,5.403 -17.66,14.727 -6.62,-10.801 -20.36,-16.196 -32.39,-16.196 -35.58,0 -58.15,33.125 -58.15,66.497 0,34.347 18.89,69.925 56.92,69.925 12.27,0 24.3,-4.172 33.62,-12.265 v 48.086 c 0,11.777 7.36,19.629 17.66,19.629 10.31,0 17.67,-7.852 17.67,-19.629 V 358.246" /><path
         id="path30"
         style="fill:#0a8137;fill-opacity:1;fill-rule:nonzero;stroke:none"
         d="m 2033.2,417.133 c -1.96,15.461 -11.77,26.992 -28.21,26.992 -15.71,0 -26.26,-12.02 -27.98,-26.992 z m -55.45,-23.555 c 2.46,-17.418 16.93,-25.515 33.37,-25.515 18.16,0 30.67,14.234 39.99,14.234 7.61,0 14.48,-7.609 14.48,-15.211 0,-15.215 -31.41,-29.938 -57.66,-29.938 -39.75,0 -66.25,28.95 -66.25,67.965 0,35.825 26.01,68.457 63.31,68.457 38.27,0 63.55,-34.843 63.55,-64.289 0,-10.547 -4.67,-15.703 -15.46,-15.703 h -75.33" /><path
         id="path32"
         style="fill:#0a8137;fill-opacity:1;fill-rule:nonzero;stroke:none"
         d="m 2081.05,452.465 c 0,11.777 7.36,19.629 17.67,19.629 9.07,0 14.96,-4.903 16.19,-13 6.87,9.566 17.42,14.476 34.1,14.476 27.73,0 48.35,-17.668 48.35,-47.597 v -67.727 c 0,-11.777 -7.37,-19.629 -17.67,-19.629 -10.31,0 -17.67,7.852 -17.67,19.629 v 61.59 c 0,16.437 -10.31,24.289 -23.06,24.289 -14.48,0 -22.58,-10.551 -22.58,-24.289 v -61.59 c 0,-11.777 -7.36,-19.629 -17.66,-19.629 -10.31,0 -17.67,7.852 -17.67,19.629 v 94.219" /><path
         id="path34"
         style="fill:#0a8137;fill-opacity:1;fill-rule:nonzero;stroke:none"
         d="m 2226.06,439.711 h -7.85 c -9.57,0 -15.46,5.891 -15.46,15.453 0,8.836 6.62,15.461 15.46,15.461 h 7.85 v 21.098 c 0,11.777 7.35,19.629 17.67,19.629 10.31,0 17.66,-7.852 17.66,-19.629 v -21.098 h 10.06 c 9.07,0 16.92,-4.172 16.92,-15.461 0,-11.039 -7.85,-15.453 -16.92,-15.453 h -10.06 v -81.465 c 0,-11.777 -7.35,-19.629 -17.66,-19.629 -10.32,0 -17.67,7.852 -17.67,19.629 v 81.465" /><path
         id="path36"
         style="fill:#0a8137;fill-opacity:1;fill-rule:nonzero;stroke:none"
         d="m 2356.83,497.125 c 0,12.266 7.85,19.141 18.41,19.141 10.56,0 18.41,-6.875 18.41,-19.141 V 373.949 h 43.67 c 12.51,0 17.91,-9.32 17.66,-17.664 -0.49,-8.097 -6.87,-16.191 -17.66,-16.191 h -61.35 c -12.01,0 -19.14,7.851 -19.14,20.117 v 136.914" /><path
         id="path38"
         style="fill:#0a8137;fill-opacity:1;fill-rule:nonzero;stroke:none"
         d="m 2459.9,452.465 c 0,11.777 7.35,19.629 17.65,19.629 10.32,0 17.68,-7.852 17.68,-19.629 v -94.219 c 0,-11.777 -7.36,-19.629 -17.68,-19.629 -10.3,0 -17.65,7.852 -17.65,19.629 z m 37.54,53.25 c 0,-11.043 -8.84,-20.367 -19.89,-20.367 -10.54,0 -19.86,9.57 -19.86,20.367 0,10.058 9.32,19.379 19.86,19.379 10.55,0 19.89,-9.078 19.89,-19.379" /><path
         id="path40"
         style="fill:#0a8137;fill-opacity:1;fill-rule:nonzero;stroke:none"
         d="m 2506.75,444.613 c -1.72,4.418 -2.2,7.121 -2.2,10.309 0,11.285 8.82,17.172 18.39,17.172 9.81,0 13.99,-7.114 15.71,-12.508 l 22.58,-69.684 h 0.48 l 22.57,69.684 c 1.72,5.394 5.89,12.508 15.71,12.508 9.57,0 18.4,-5.887 18.4,-17.172 0,-3.188 -0.49,-5.891 -2.2,-10.309 l -35.59,-91.269 c -3.44,-9.082 -7.11,-14.727 -19.14,-14.727 -12.01,0 -15.7,5.645 -19.14,14.727 l -35.57,91.269" /><path
         id="path42"
         style="fill:#0a8137;fill-opacity:1;fill-rule:nonzero;stroke:none"
         d="m 2627.71,452.465 c 0,11.777 7.36,19.629 17.68,19.629 10.29,0 17.65,-7.852 17.65,-19.629 v -94.219 c 0,-11.777 -7.36,-19.629 -17.65,-19.629 -10.32,0 -17.68,7.852 -17.68,19.629 z m 37.54,53.25 c 0,-11.043 -8.83,-20.367 -19.86,-20.367 -10.56,0 -19.89,9.57 -19.89,20.367 0,10.058 9.33,19.379 19.89,19.379 10.54,0 19.86,-9.078 19.86,-19.379" /><path
         id="path44"
         style="fill:#0a8137;fill-opacity:1;fill-rule:nonzero;stroke:none"
         d="m 2682.67,452.465 c 0,11.777 7.36,19.629 17.67,19.629 9.07,0 14.97,-4.903 16.2,-13 6.86,9.566 17.42,14.476 34.1,14.476 27.72,0 48.34,-17.668 48.34,-47.597 v -67.727 c 0,-11.777 -7.36,-19.629 -17.68,-19.629 -10.3,0 -17.65,7.852 -17.65,19.629 v 61.59 c 0,16.437 -10.32,24.289 -23.07,24.289 -14.47,0 -22.58,-10.551 -22.58,-24.289 v -61.59 c 0,-11.777 -7.36,-19.629 -17.66,-19.629 -10.31,0 -17.67,7.852 -17.67,19.629 v 94.219" /><path
         id="path46"
         style="fill:#0a8137;fill-opacity:1;fill-rule:nonzero;stroke:none"
         d="m 2876.75,441.184 c -18.4,0 -27.48,-19.137 -27.48,-35.579 0,-18.89 9.08,-36.07 27.48,-36.07 18.9,0 27.74,17.668 27.74,34.844 0,17.176 -8.34,36.805 -27.74,36.805 z m 63.07,-90.789 c 0,-42.446 -27.74,-63.79 -67.97,-63.79 -14.47,0 -55.7,7.118 -55.7,26.497 0,6.625 7.36,15.457 14.24,15.457 11.28,0 23.79,-11.039 44.16,-11.039 17.17,0 29.94,10.058 29.94,27.972 v 8.34 H 2904 c -7.36,-10.797 -19.4,-16.684 -35.59,-16.684 -37.05,0 -54.47,32.633 -54.47,67.719 0,35.578 22.58,68.703 58.15,68.703 12.03,0 25.78,-5.402 32.4,-16.191 2.2,9.32 7.85,14.715 17.65,14.715 10.32,0 17.68,-7.852 17.68,-19.629 v -102.07" /><path
         id="path48"
         style="fill:#0a8137;fill-opacity:1;fill-rule:nonzero;stroke:none"
         d="m 3129.98,493.199 c 0,-9.57 -6.39,-18.156 -16.45,-18.156 -10.06,0 -17.91,7.359 -32.64,7.359 -10.54,0 -20.11,-5.644 -20.11,-15.949 0,-25.269 81.95,-9.074 81.95,-72.379 0,-35.09 -28.96,-56.926 -62.81,-56.926 -18.9,0 -59.63,4.418 -59.63,27.481 0,9.57 6.38,17.422 16.44,17.422 11.53,0 25.28,-9.571 41.21,-9.571 16.21,0 25.04,9.079 25.04,21.098 0,28.957 -81.95,11.535 -81.95,68.457 0,34.352 28.21,55.699 60.84,55.699 13.75,0 48.11,-5.152 48.11,-24.535" /><path
         id="path50"
         style="fill:#0a8137;fill-opacity:1;fill-rule:nonzero;stroke:none"
         d="m 3241.36,417.133 c -1.96,15.461 -11.78,26.992 -28.22,26.992 -15.7,0 -26.25,-12.02 -27.97,-26.992 z m -55.45,-23.555 c 2.45,-17.418 16.94,-25.515 33.36,-25.515 18.17,0 30.69,14.234 40,14.234 7.61,0 14.48,-7.609 14.48,-15.211 0,-15.215 -31.41,-29.938 -57.66,-29.938 -39.75,0 -66.25,28.95 -66.25,67.965 0,35.825 26.01,68.457 63.3,68.457 38.28,0 63.55,-34.843 63.55,-64.289 0,-10.547 -4.66,-15.703 -15.45,-15.703 h -75.33" /><path
         id="path52"
         style="fill:#0a8137;fill-opacity:1;fill-rule:nonzero;stroke:none"
         d="m 3288.73,454.43 c 0,11.777 9.31,17.664 18.14,17.664 9.34,0 17.19,-3.434 17.19,-14.715 h 0.49 c 6.62,9.812 13.73,14.715 24.78,14.715 8.58,0 17.17,-6.133 17.17,-18.891 0,-11.527 -10.55,-12.265 -21.09,-17.172 -10.56,-4.91 -21.35,-9.57 -21.35,-23.554 v -54.231 c 0,-11.777 -7.37,-19.629 -17.68,-19.629 -10.3,0 -17.65,7.852 -17.65,19.629 v 96.184" /><path
         id="path54"
         style="fill:#0a8137;fill-opacity:1;fill-rule:nonzero;stroke:none"
         d="m 3362.82,444.613 c -1.72,4.418 -2.21,7.121 -2.21,10.309 0,11.285 8.84,17.172 18.41,17.172 9.8,0 13.98,-7.114 15.7,-12.508 l 22.56,-69.684 h 0.5 l 22.57,69.684 c 1.72,5.394 5.9,12.508 15.7,12.508 9.57,0 18.41,-5.887 18.41,-17.172 0,-3.188 -0.5,-5.891 -2.22,-10.309 l -35.57,-91.269 c -3.43,-9.082 -7.11,-14.727 -19.14,-14.727 -12.03,0 -15.7,5.645 -19.14,14.727 l -35.57,91.269" /><path
         id="path56"
         style="fill:#0a8137;fill-opacity:1;fill-rule:nonzero;stroke:none"
         d="m 3483.78,452.465 c 0,11.777 7.36,19.629 17.66,19.629 10.31,0 17.68,-7.852 17.68,-19.629 v -94.219 c 0,-11.777 -7.37,-19.629 -17.68,-19.629 -10.3,0 -17.66,7.852 -17.66,19.629 z m 37.54,53.25 c 0,-11.043 -8.83,-20.367 -19.88,-20.367 -10.55,0 -19.86,9.57 -19.86,20.367 0,10.058 9.31,19.379 19.86,19.379 10.55,0 19.88,-9.078 19.88,-19.379" /><path
         id="path58"
         style="fill:#0a8137;fill-opacity:1;fill-rule:nonzero;stroke:none"
         d="m 3626.58,434.313 c -8.83,0 -16.68,6.871 -27.97,6.871 -20.12,0 -29.69,-17.911 -29.69,-36.071 0,-17.422 10.55,-35.578 29.69,-35.578 8.83,0 22.08,7.363 26.25,7.363 8.34,0 15.21,-7.117 15.21,-15.457 0,-18.16 -30.43,-24.293 -43.18,-24.293 -38.03,0 -63.3,31.165 -63.3,67.965 0,35.825 25.99,68.457 63.3,68.457 13.98,0 43.18,-5.152 43.18,-22.332 0,-7.355 -5.15,-16.925 -13.49,-16.925" /><path
         id="path60"
         style="fill:#0a8137;fill-opacity:1;fill-rule:nonzero;stroke:none"
         d="m 3736.25,417.133 c -1.96,15.461 -11.77,26.992 -28.21,26.992 -15.7,0 -26.26,-12.02 -27.97,-26.992 z m -55.45,-23.555 c 2.46,-17.418 16.93,-25.515 33.37,-25.515 18.16,0 30.67,14.234 40,14.234 7.6,0 14.48,-7.609 14.48,-15.211 0,-15.215 -31.41,-29.938 -57.67,-29.938 -39.75,0 -66.24,28.95 -66.24,67.965 0,35.825 26,68.457 63.3,68.457 38.28,0 63.54,-34.843 63.54,-64.289 0,-10.547 -4.65,-15.703 -15.45,-15.703 h -75.33" /><path
         id="path62"
         style="fill:#0a8137;fill-opacity:1;fill-rule:nonzero;stroke:none"
         d="m 1002.75,556.582 c 0,-2.719 -0.64,-4.789 -1.92,-6.199 -1.275,-1.418 -2.982,-2.121 -5.115,-2.121 -2.137,0 -3.84,0.707 -5.117,2.125 -1.282,1.41 -1.922,3.484 -1.922,6.215 v 97.242 c 0,2.722 0.64,4.801 1.922,6.215 1.277,1.41 2.98,2.125 5.117,2.125 2.133,0 3.84,-0.707 5.115,-2.121 1.28,-1.415 1.92,-3.485 1.92,-6.204 v -42.398 h 60 v 42.398 c 0,2.719 0.64,4.789 1.92,6.204 1.28,1.414 2.99,2.121 5.12,2.121 2.14,0 3.84,-0.715 5.12,-2.125 1.29,-1.414 1.93,-3.493 1.93,-6.215 v -97.242 c 0,-2.731 -0.64,-4.805 -1.93,-6.215 -1.28,-1.418 -2.98,-2.125 -5.12,-2.125 -2.13,0 -3.84,0.703 -5.12,2.121 -1.28,1.41 -1.92,3.48 -1.92,6.199 v 42.719 h -60 v -42.719" /><path
         id="path64"
         style="fill:#0a8137;fill-opacity:1;fill-rule:nonzero;stroke:none"
         d="m 1151.07,595.941 c 0,2.981 -0.45,5.957 -1.36,8.942 -0.91,2.98 -2.26,5.68 -4.08,8.09 -1.81,2.418 -4.16,4.394 -7.04,5.937 -2.88,1.539 -6.24,2.313 -10.07,2.313 -4.38,0.215 -8.06,-0.426 -11.04,-1.926 -2.99,-1.492 -5.45,-3.445 -7.37,-5.859 -1.92,-2.418 -3.33,-5.165 -4.24,-8.247 -0.9,-3.086 -1.41,-6.168 -1.51,-9.25 z m -46.71,-10.558 c 0,-3.492 0.55,-6.754 1.68,-9.785 1.11,-3.028 2.76,-5.676 4.95,-7.938 2.19,-2.258 4.83,-4.027 7.92,-5.312 3.1,-1.289 6.62,-1.926 10.56,-1.926 4.7,0 8.59,0.613 11.68,1.84 3.1,1.226 5.68,2.558 7.76,4 2.08,1.437 3.84,2.746 5.28,3.918 1.44,1.172 2.8,1.765 4.08,1.765 1.29,0 2.46,-0.539 3.52,-1.601 1.07,-1.071 1.6,-2.617 1.6,-4.641 0,-1.711 -0.98,-3.574 -2.96,-5.601 -1.97,-2.028 -4.59,-3.918 -7.84,-5.676 -3.25,-1.766 -6.91,-3.231 -10.96,-4.406 -4.05,-1.172 -8.16,-1.758 -12.32,-1.758 -6.82,0 -12.69,1.172 -17.6,3.519 -4.9,2.344 -8.96,5.5 -12.15,9.465 -3.21,3.965 -5.56,8.504 -7.05,13.617 -1.49,5.11 -2.24,10.43 -2.24,15.957 0,5.633 0.88,11.032 2.65,16.196 1.75,5.164 4.26,9.703 7.51,13.613 3.26,3.914 7.26,7.019 12,9.312 4.75,2.297 10.11,3.442 16.09,3.442 5.75,0 10.92,-1.18 15.51,-3.528 4.59,-2.359 8.43,-5.441 11.52,-9.257 3.1,-3.821 5.47,-8.157 7.12,-13.02 1.66,-4.863 2.48,-9.805 2.48,-14.824 0,-2.402 -0.53,-4.234 -1.6,-5.488 -1.06,-1.254 -3.14,-1.883 -6.24,-1.883 h -52.95" /><path
         id="path66"
         style="fill:#0a8137;fill-opacity:1;fill-rule:nonzero;stroke:none"
         d="m 1178.59,626.027 c 0,2.293 0.64,4.09 1.92,5.399 1.28,1.304 2.99,1.957 5.12,1.957 2.13,0 3.84,-0.653 5.12,-1.957 1.28,-1.309 1.92,-3.106 1.92,-5.399 v -7.043 h 0.32 c 0.85,1.567 1.95,3.207 3.28,4.934 1.33,1.719 2.83,3.281 4.48,4.691 1.65,1.407 3.47,2.551 5.44,3.442 1.97,0.883 3.98,1.332 6,1.332 2.45,0 4.37,-0.684 5.76,-2.035 1.39,-1.36 2.08,-3.028 2.08,-5.004 0,-3.965 -2.94,-6.473 -8.8,-7.516 -2.03,-0.312 -4.16,-0.961 -6.4,-1.953 -2.24,-0.992 -4.24,-2.426 -6,-4.305 -1.76,-1.875 -3.22,-4.226 -4.4,-7.043 -1.17,-2.816 -1.76,-6.257 -1.76,-10.328 v -39.586 c 0,-2.293 -0.64,-4.09 -1.92,-5.398 -1.28,-1.305 -2.99,-1.953 -5.12,-1.953 -2.13,0 -3.84,0.648 -5.12,1.953 -1.28,1.308 -1.92,3.105 -1.92,5.398 v 70.414" /><path
         id="path68"
         style="fill:#0a8137;fill-opacity:1;fill-rule:nonzero;stroke:none"
         d="m 1233.47,651.781 c 0,2.344 0.64,4.188 1.92,5.52 1.28,1.332 2.98,2 5.12,2 2.13,0 3.84,-0.668 5.12,-2 1.28,-1.332 1.92,-3.176 1.92,-5.52 v -18.398 h 5.76 c 4.69,0 7.04,-2.031 7.04,-6.082 0,-4.055 -2.35,-6.078 -7.04,-6.078 h -5.76 v -65.539 c 0,-2.317 -0.64,-4.137 -1.92,-5.45 -1.28,-1.312 -2.99,-1.972 -5.12,-1.972 -2.14,0 -3.84,0.66 -5.12,1.972 -1.28,1.313 -1.92,3.133 -1.92,5.45 v 65.539 h -5.76 c -4.7,0 -7.04,2.023 -7.04,6.078 0,4.051 2.34,6.082 7.04,6.082 h 5.76 v 18.398" /><path
         id="path70"
         style="fill:#0a8137;fill-opacity:1;fill-rule:nonzero;stroke:none"
         d="m 1289.15,555.684 c 0,-2.317 -0.64,-4.137 -1.92,-5.45 -1.28,-1.312 -2.99,-1.972 -5.12,-1.972 -2.13,0 -3.84,0.66 -5.12,1.972 -1.28,1.313 -1.92,3.133 -1.92,5.45 v 65.539 h -5.76 c -4.7,0 -7.04,2.023 -7.04,6.078 0,4.051 2.34,6.082 7.04,6.082 h 5.76 v 20 c 0,6.183 1.84,10.797 5.52,13.84 3.68,3.043 8.08,4.558 13.2,4.558 h 4.32 c 1.81,0 3.6,-0.535 5.36,-1.601 1.76,-1.063 2.64,-2.559 2.64,-4.477 0,-4.058 -2.56,-6.078 -7.68,-6.078 h -3.52 c -2.14,0 -3.63,-0.484 -4.48,-1.441 -0.85,-0.961 -1.28,-2.348 -1.28,-4.161 v -20.64 h 8.8 c 4.69,0 7.04,-2.031 7.04,-6.082 0,-4.055 -2.35,-6.078 -7.04,-6.078 h -8.8 v -65.539" /><path
         id="path72"
         style="fill:#0a8137;fill-opacity:1;fill-rule:nonzero;stroke:none"
         d="m 1323.62,580.195 c 0.8,-3.562 2.14,-6.82 4,-9.769 1.87,-2.949 4.3,-5.352 7.28,-7.211 2.99,-1.863 6.62,-2.793 10.89,-2.793 4.37,0 8.02,0.93 10.95,2.793 2.94,1.859 5.34,4.262 7.21,7.211 1.86,2.949 3.19,6.207 3.99,9.769 0.81,3.571 1.21,7.11 1.21,10.625 0,3.516 -0.4,7.055 -1.21,10.625 -0.8,3.567 -2.13,6.828 -3.99,9.77 -1.87,2.949 -4.27,5.351 -7.21,7.215 -2.93,1.859 -6.58,2.793 -10.95,2.793 -4.27,0 -7.9,-0.934 -10.89,-2.793 -2.98,-1.864 -5.41,-4.266 -7.28,-7.215 -1.86,-2.942 -3.2,-6.203 -4,-9.77 -0.8,-3.57 -1.2,-7.109 -1.2,-10.625 0,-3.515 0.4,-7.054 1.2,-10.625 z m -12.79,26.586 c 1.65,5.11 4.07,9.649 7.28,13.614 3.19,3.964 7.11,7.121 11.75,9.468 4.64,2.344 9.95,3.52 15.93,3.52 5.97,0 11.28,-1.176 15.91,-3.52 4.64,-2.347 8.56,-5.504 11.76,-9.468 3.21,-3.965 5.63,-8.504 7.28,-13.614 1.66,-5.109 2.48,-10.433 2.48,-15.961 0,-5.527 -0.82,-10.847 -2.48,-15.957 -1.65,-5.113 -4.07,-9.652 -7.28,-13.617 -3.2,-3.965 -7.12,-7.121 -11.76,-9.465 -4.63,-2.347 -9.94,-3.519 -15.91,-3.519 -5.98,0 -11.29,1.172 -15.93,3.519 -4.64,2.344 -8.56,5.5 -11.75,9.465 -3.21,3.965 -5.63,8.504 -7.28,13.617 -1.66,5.11 -2.49,10.43 -2.49,15.957 0,5.528 0.83,10.852 2.49,15.961" /><path
         id="path74"
         style="fill:#0a8137;fill-opacity:1;fill-rule:nonzero;stroke:none"
         d="m 1398.11,626.027 c 0,2.293 0.64,4.09 1.92,5.399 1.28,1.304 2.98,1.957 5.12,1.957 2.13,0 3.84,-0.653 5.12,-1.957 1.28,-1.309 1.92,-3.106 1.92,-5.399 v -7.043 h 0.32 c 0.85,1.567 1.94,3.207 3.28,4.934 1.33,1.719 2.82,3.281 4.48,4.691 1.65,1.407 3.47,2.551 5.44,3.442 1.97,0.883 3.97,1.332 6,1.332 2.45,0 4.37,-0.684 5.76,-2.035 1.38,-1.36 2.08,-3.028 2.08,-5.004 0,-3.965 -2.94,-6.473 -8.8,-7.516 -2.03,-0.312 -4.16,-0.961 -6.4,-1.953 -2.24,-0.992 -4.24,-2.426 -6,-4.305 -1.76,-1.875 -3.23,-4.226 -4.4,-7.043 -1.18,-2.816 -1.76,-6.257 -1.76,-10.328 v -39.586 c 0,-2.293 -0.64,-4.09 -1.92,-5.398 -1.28,-1.305 -2.99,-1.953 -5.12,-1.953 -2.14,0 -3.84,0.648 -5.12,1.953 -1.28,1.308 -1.92,3.105 -1.92,5.398 v 70.414" /><path
         id="path76"
         style="fill:#0a8137;fill-opacity:1;fill-rule:nonzero;stroke:none"
         d="m 1504.42,601.445 c -0.8,3.567 -2.13,6.828 -4,9.77 -1.87,2.949 -4.26,5.351 -7.2,7.215 -2.93,1.859 -6.58,2.793 -10.95,2.793 -4.27,0 -7.9,-0.934 -10.89,-2.793 -2.98,-1.864 -5.41,-4.266 -7.28,-7.215 -1.86,-2.942 -3.2,-6.203 -4,-9.77 -0.8,-3.57 -1.2,-7.109 -1.2,-10.625 0,-3.515 0.4,-7.054 1.2,-10.625 0.8,-3.562 2.14,-6.82 4,-9.769 1.87,-2.949 4.3,-5.352 7.28,-7.211 2.99,-1.863 6.62,-2.793 10.89,-2.793 4.37,0 8.02,0.93 10.95,2.793 2.94,1.859 5.33,4.262 7.2,7.211 1.87,2.949 3.2,6.207 4,9.769 0.8,3.571 1.21,7.11 1.21,10.625 0,3.516 -0.41,7.055 -1.21,10.625 z m -0.24,-41.504 h -0.32 c -4.05,-7.789 -11.62,-11.679 -22.72,-11.679 -5.75,0 -10.88,1.172 -15.36,3.519 -4.48,2.344 -8.29,5.5 -11.43,9.465 -3.15,3.965 -5.53,8.504 -7.13,13.617 -1.59,5.11 -2.4,10.43 -2.4,15.957 0,5.528 0.81,10.852 2.4,15.961 1.6,5.11 3.98,9.649 7.13,13.614 3.14,3.964 6.95,7.121 11.43,9.468 4.48,2.344 9.61,3.52 15.36,3.52 2.78,0 5.36,-0.352 7.76,-1.039 2.4,-0.699 4.56,-1.602 6.49,-2.719 1.91,-1.125 3.57,-2.379 4.95,-3.766 1.39,-1.386 2.57,-2.718 3.52,-4 h 0.32 v 42.258 c 0,2.391 0.64,4.266 1.92,5.625 1.28,1.363 2.99,2.039 5.13,2.039 2.12,0 3.83,-0.664 5.11,-1.984 1.28,-1.324 1.92,-3.152 1.92,-5.477 V 555.723 c 0,-2.328 -0.64,-4.157 -1.92,-5.473 -1.28,-1.328 -2.99,-1.988 -5.11,-1.988 -2.14,0 -3.85,0.664 -5.13,2.004 -1.28,1.328 -1.92,3.168 -1.92,5.515 v 4.16" /><path
         id="path78"
         style="fill:#0a8137;fill-opacity:1;fill-rule:nonzero;stroke:none"
         d="m 1538.11,620.129 c 1.7,2.906 3.91,5.355 6.63,7.328 2.73,1.977 5.82,3.457 9.28,4.441 3.47,0.989 6.96,1.485 10.48,1.485 2.88,0 6,-0.375 9.36,-1.121 3.36,-0.746 6.43,-1.789 9.2,-3.121 2.77,-1.332 5.09,-2.907 6.96,-4.715 1.87,-1.817 2.8,-3.844 2.8,-6.086 0,-1.492 -0.53,-2.828 -1.59,-4 -1.07,-1.172 -2.68,-1.758 -4.8,-1.758 -1.5,0 -2.86,0.449 -4.09,1.359 -1.22,0.907 -2.58,1.895 -4.08,2.957 -1.49,1.071 -3.3,2.055 -5.44,2.965 -2.13,0.903 -4.9,1.36 -8.32,1.36 -4.05,0 -7.54,-0.856 -10.48,-2.575 -2.93,-1.714 -4.4,-4.335 -4.4,-7.871 0,-2.386 1.12,-4.418 3.36,-6.078 2.24,-1.668 5.04,-3.199 8.4,-4.601 3.36,-1.403 7.02,-2.809 10.96,-4.207 3.95,-1.407 7.6,-3.067 10.97,-4.993 3.36,-1.921 6.15,-4.234 8.39,-6.937 2.25,-2.699 3.36,-6.078 3.36,-10.133 0,-4.363 -0.88,-8.129 -2.64,-11.305 -1.76,-3.168 -4.08,-5.82 -6.96,-7.949 -2.88,-2.129 -6.18,-3.715 -9.92,-4.754 -3.73,-1.039 -7.57,-1.558 -11.52,-1.558 -4.47,0 -8.66,0.504 -12.56,1.519 -3.89,1.016 -7.28,2.293 -10.16,3.84 -2.88,1.547 -5.14,3.277 -6.8,5.203 -1.65,1.918 -2.48,3.785 -2.48,5.602 0,1.918 0.59,3.461 1.76,4.637 1.18,1.171 2.51,1.757 4,1.757 1.6,0 3.15,-0.531 4.64,-1.597 1.5,-1.067 3.25,-2.27 5.29,-3.602 2.02,-1.336 4.37,-2.535 7.03,-3.598 2.67,-1.07 5.92,-1.601 9.76,-1.601 5.12,0 9.15,1.164 12.08,3.508 2.94,2.336 4.4,4.91 4.4,7.715 0,2.703 -1.12,4.992 -3.36,6.863 -2.23,1.867 -5.04,3.582 -8.4,5.14 -3.36,1.563 -7.01,3.094 -10.96,4.598 -3.94,1.512 -7.6,3.223 -10.96,5.149 -3.35,1.921 -6.16,4.207 -8.4,6.859 -2.23,2.652 -3.36,5.898 -3.36,9.742 0,3.848 0.86,7.223 2.57,10.133" /><path
         id="path80"
         style="fill:#0a8137;fill-opacity:1;fill-rule:nonzero;stroke:none"
         d="m 1661.94,600.801 c 0,3.637 -0.59,6.754 -1.76,9.351 -1.18,2.598 -2.69,4.703 -4.56,6.313 -1.87,1.609 -3.97,2.808 -6.32,3.59 -2.35,0.773 -4.7,1.168 -7.04,1.168 -2.35,0 -4.7,-0.395 -7.04,-1.168 -2.35,-0.782 -4.46,-1.981 -6.32,-3.59 -1.87,-1.61 -3.39,-3.715 -4.56,-6.313 -1.18,-2.597 -1.76,-5.714 -1.76,-9.351 V 555.59 c 0,-2.289 -0.64,-4.082 -1.92,-5.379 -1.28,-1.301 -2.99,-1.949 -5.12,-1.949 -2.14,0 -3.84,0.66 -5.12,1.988 -1.28,1.316 -1.92,3.145 -1.92,5.473 V 664.32 c 0,2.325 0.64,4.153 1.92,5.477 1.28,1.32 2.98,1.984 5.12,1.984 2.13,0 3.84,-0.676 5.12,-2.039 1.28,-1.359 1.92,-3.238 1.92,-5.629 V 622.5 l 0.32,-0.316 c 3.09,4.05 6.72,6.933 10.88,8.636 4.16,1.703 8.37,2.563 12.64,2.563 3.3,0 6.69,-0.551 10.16,-1.645 3.46,-1.093 6.64,-2.894 9.52,-5.398 2.88,-2.508 5.25,-5.766 7.12,-9.781 1.86,-4.016 2.8,-8.946 2.8,-14.786 v -46.16 c 0,-2.293 -0.64,-4.09 -1.92,-5.398 -1.28,-1.305 -2.99,-1.953 -5.12,-1.953 -2.13,0 -3.84,0.648 -5.12,1.949 -1.28,1.297 -1.92,3.09 -1.92,5.379 v 45.211" /><path
         id="path82"
         style="fill:#0a8137;fill-opacity:1;fill-rule:nonzero;stroke:none"
         d="m 1708.66,555.613 c 0,-2.293 -0.64,-4.09 -1.92,-5.398 -1.28,-1.305 -2.99,-1.953 -5.12,-1.953 -2.13,0 -3.84,0.648 -5.12,1.953 -1.28,1.308 -1.92,3.105 -1.92,5.398 v 70.414 c 0,2.293 0.64,4.09 1.92,5.399 1.28,1.304 2.99,1.957 5.12,1.957 2.13,0 3.84,-0.653 5.12,-1.957 1.28,-1.309 1.92,-3.106 1.92,-5.399 z m -13.2,104.09 c 1.65,1.649 3.71,2.481 6.16,2.481 2.46,0 4.51,-0.832 6.16,-2.481 1.65,-1.656 2.48,-3.707 2.48,-6.164 0,-2.449 -0.83,-4.508 -2.48,-6.156 -1.65,-1.656 -3.7,-2.481 -6.16,-2.481 -2.45,0 -4.51,0.825 -6.16,2.481 -1.65,1.648 -2.48,3.707 -2.48,6.156 0,2.457 0.83,4.508 2.48,6.164" /><path
         id="path84"
         style="fill:#0a8137;fill-opacity:1;fill-rule:nonzero;stroke:none"
         d="m 1727.22,626.027 c 0,2.293 0.64,4.09 1.92,5.399 1.28,1.304 2.98,1.957 5.12,1.957 2.13,0 3.84,-0.653 5.12,-1.957 1.28,-1.309 1.92,-3.106 1.92,-5.399 v -7.043 h 0.32 c 0.85,1.567 1.94,3.207 3.28,4.934 1.33,1.719 2.82,3.281 4.48,4.691 1.65,1.407 3.47,2.551 5.44,3.442 1.97,0.883 3.97,1.332 6,1.332 2.45,0 4.37,-0.684 5.76,-2.035 1.38,-1.36 2.08,-3.028 2.08,-5.004 0,-3.965 -2.94,-6.473 -8.8,-7.516 -2.03,-0.312 -4.16,-0.961 -6.4,-1.953 -2.24,-0.992 -4.24,-2.426 -6,-4.305 -1.76,-1.875 -3.23,-4.226 -4.4,-7.043 -1.18,-2.816 -1.76,-6.257 -1.76,-10.328 v -39.586 c 0,-2.293 -0.64,-4.09 -1.92,-5.398 -1.28,-1.305 -2.99,-1.953 -5.12,-1.953 -2.14,0 -3.84,0.648 -5.12,1.953 -1.28,1.308 -1.92,3.105 -1.92,5.398 v 70.414" /><path
         id="path86"
         style="fill:#0a8137;fill-opacity:1;fill-rule:nonzero;stroke:none"
         d="m 1833.3,595.941 c 0,2.981 -0.45,5.957 -1.36,8.942 -0.91,2.98 -2.27,5.68 -4.08,8.09 -1.82,2.418 -4.16,4.394 -7.04,5.937 -2.88,1.539 -6.24,2.313 -10.08,2.313 -4.37,0.215 -8.05,-0.426 -11.04,-1.926 -2.99,-1.492 -5.44,-3.445 -7.36,-5.859 -1.92,-2.418 -3.34,-5.165 -4.24,-8.247 -0.91,-3.086 -1.42,-6.168 -1.52,-9.25 z m -46.72,-10.558 c 0,-3.492 0.56,-6.754 1.68,-9.785 1.12,-3.028 2.77,-5.676 4.96,-7.938 2.19,-2.258 4.83,-4.027 7.92,-5.312 3.09,-1.289 6.61,-1.926 10.56,-1.926 4.69,0 8.58,0.613 11.68,1.84 3.09,1.226 5.68,2.558 7.76,4 2.08,1.437 3.84,2.746 5.28,3.918 1.44,1.172 2.8,1.765 4.08,1.765 1.28,0 2.45,-0.539 3.52,-1.601 1.06,-1.071 1.6,-2.617 1.6,-4.641 0,-1.711 -0.99,-3.574 -2.96,-5.601 -1.98,-2.028 -4.59,-3.918 -7.84,-5.676 -3.26,-1.766 -6.91,-3.231 -10.96,-4.406 -4.06,-1.172 -8.16,-1.758 -12.32,-1.758 -6.83,0 -12.7,1.172 -17.6,3.519 -4.91,2.344 -8.96,5.5 -12.16,9.465 -3.2,3.965 -5.55,8.504 -7.04,13.617 -1.49,5.11 -2.24,10.43 -2.24,15.957 0,5.633 0.88,11.032 2.64,16.196 1.76,5.164 4.26,9.703 7.52,13.613 3.25,3.914 7.25,7.019 12,9.312 4.74,2.297 10.11,3.442 16.08,3.442 5.76,0 10.93,-1.18 15.52,-3.528 4.58,-2.359 8.42,-5.441 11.52,-9.257 3.09,-3.821 5.47,-8.157 7.12,-13.02 1.65,-4.863 2.48,-9.805 2.48,-14.824 0,-2.402 -0.53,-4.234 -1.6,-5.488 -1.07,-1.254 -3.15,-1.883 -6.24,-1.883 h -52.96" /><path
         id="path88"
         style="fill:#0a8137;fill-opacity:1;fill-rule:nonzero;stroke:none"
         d="m 10,428.398 c 0,231.028 187.32,418.321 418.391,418.321 231.027,0 418.367,-187.293 418.367,-418.321 C 846.758,197.324 659.418,10 428.391,10 197.32,10 10,197.324 10,428.398" /><path
         id="path90"
         style="fill:none;stroke:#ffffff;stroke-width:20;stroke-linecap:butt;stroke-linejoin:miter;stroke-miterlimit:10;stroke-dasharray:none;stroke-opacity:1"
         d="m 10,428.398 c 0,231.028 187.32,418.321 418.391,418.321 231.027,0 418.367,-187.293 418.367,-418.321 C 846.758,197.324 659.418,10 428.391,10 197.32,10 10,197.324 10,428.398 Z" /><path
         id="path92"
         style="fill:#ffffff;fill-opacity:1;fill-rule:nonzero;stroke:none"
         d="m 209.473,111.191 -72.063,83.887 114.336,57.625 c 0,0 92.895,-0.957 152.938,-13.621 60.043,-12.656 91.711,-32.734 90.078,-38.633 -1.68,-5.871 -1.641,-34.765 -7.969,-32.988 -6.309,1.777 -85.77,2.961 -98.586,15.059 0,0 -29.254,-3.614 -5.965,-21.211 0,0 98.918,-19.786 119.024,-8.543 0,0 18.054,41.511 23.629,46.308 0,0 175.375,58.621 191.589,56.16 0,0 39.817,-9.101 21.403,-29.304 0,0 -238.199,-172.2464 -280.367,-162.4808 0,0 -7.672,-10.5586 -189.977,64.0818 l -58.07,-16.34" /><path
         id="path94"
         style="fill:none;stroke:#0a8137;stroke-width:6;stroke-linecap:butt;stroke-linejoin:miter;stroke-miterlimit:10;stroke-dasharray:none;stroke-opacity:1"
         d="m 209.473,111.191 -72.063,83.887 114.336,57.625 c 0,0 92.895,-0.957 152.938,-13.621 60.043,-12.656 91.711,-32.734 90.078,-38.633 -1.68,-5.871 -1.641,-34.765 -7.969,-32.988 -6.309,1.777 -85.77,2.961 -98.586,15.059 0,0 -29.254,-3.614 -5.965,-21.211 0,0 98.918,-19.786 119.024,-8.543 0,0 18.054,41.511 23.629,46.308 0,0 175.375,58.621 191.589,56.16 0,0 39.817,-9.101 21.403,-29.304 0,0 -238.199,-172.2464 -280.367,-162.4808 0,0 -7.672,-10.5586 -189.977,64.0818 z" /><path
         id="path96"
         style="fill:#ffffff;fill-opacity:1;fill-rule:nonzero;stroke:none"
         d="m 87.6289,583.691 c 0,18.731 11.9805,29.219 28.0781,29.219 16.106,0 28.086,-10.488 28.086,-29.219 v -79.375 h 117.578 v 79.375 c 0,18.731 11.984,29.219 28.086,29.219 16.102,0 28.082,-10.488 28.082,-29.219 V 371.008 c 0,-18.723 -11.98,-29.211 -28.082,-29.211 -16.102,0 -28.086,10.488 -28.086,29.211 v 81.629 H 143.793 v -81.629 c 0,-18.723 -11.98,-29.211 -28.086,-29.211 -16.0976,0 -28.0781,10.488 -28.0781,29.211 v 212.683" /><path
         id="path98"
         style="fill:#ffffff;fill-opacity:1;fill-rule:nonzero;stroke:none"
         d="m 351.234,583.691 c 0,18.731 11.985,29.219 28.086,29.219 16.102,0 28.082,-10.488 28.082,-29.219 V 371.008 c 0,-18.723 -11.98,-29.211 -28.082,-29.211 -16.101,0 -28.086,10.488 -28.086,29.211 v 212.683" /><path
         id="path100"
         style="fill:#ffffff;fill-opacity:1;fill-rule:nonzero;stroke:none"
         d="m 441.105,583.691 c 0,18.731 11.981,29.219 28.079,29.219 16.105,0 28.086,-10.488 28.086,-29.219 V 395.723 h 66.652 c 19.101,0 27.34,-14.231 26.961,-26.961 -0.746,-12.356 -10.485,-24.719 -26.961,-24.719 h -93.609 c -18.348,0 -29.208,11.992 -29.208,30.703 v 208.945" /><path
         id="path102"
         style="fill:#ffffff;fill-opacity:1;fill-rule:nonzero;stroke:none"
         d="m 768.258,577.703 c 0,-14.598 -9.738,-27.703 -25.09,-27.703 -15.352,0 -27.332,11.23 -49.801,11.23 -16.101,0 -30.707,-8.613 -30.707,-24.335 0,-38.575 125.07,-13.86 125.07,-110.469 0,-53.543 -44.183,-86.875 -95.859,-86.875 -28.836,0 -90.992,6.738 -90.992,41.941 0,14.602 9.734,26.594 25.09,26.594 17.594,0 38.566,-14.609 62.91,-14.609 24.711,0 38.191,13.847 38.191,32.207 0,44.179 -125.066,17.597 -125.066,104.472 0,52.422 43.059,85 92.863,85 20.969,0 73.391,-7.871 73.391,-37.453" /><path
         id="path104"
         style="fill:#0a8137;fill-opacity:1;fill-rule:nonzero;stroke:none"
         d="m 997.844,239.867 c 0,-5.531 -3.688,-10.504 -9.508,-10.504 -5.82,0 -10.363,4.258 -18.871,4.258 -6.106,0 -11.637,-3.258 -11.637,-9.223 0,-14.613 47.392,-5.246 47.392,-41.859 0,-20.293 -16.743,-32.926 -36.329,-32.926 -10.922,0 -34.481,2.555 -34.481,15.895 0,5.539 3.692,10.078 9.508,10.078 6.668,0 14.617,-5.535 23.84,-5.535 9.367,0 14.472,5.254 14.472,12.207 0,16.742 -47.394,6.668 -47.394,39.59 0,19.867 16.32,32.211 35.191,32.211 7.946,0 27.817,-2.981 27.817,-14.192" /><path
         id="path106"
         style="fill:#0a8137;fill-opacity:1;fill-rule:nonzero;stroke:none"
         d="m 1017.27,216.313 c 0,6.812 4.25,11.355 10.22,11.355 5.96,0 10.22,-4.543 10.22,-11.355 v -36.469 c 0,-8.516 6.38,-13.199 13.19,-13.199 6.81,0 13.2,4.683 13.2,13.199 v 36.469 c 0,6.812 4.25,11.355 10.22,11.355 5.95,0 10.21,-4.543 10.21,-11.355 v -36.899 c 0,-18.164 -12.06,-29.801 -33.63,-29.801 -21.57,0 -33.63,11.637 -33.63,29.801 v 36.899" /><path
         id="path108"
         style="fill:#0a8137;fill-opacity:1;fill-rule:nonzero;stroke:none"
         d="m 1136.18,168.352 c 10.64,0 15.89,11.062 15.89,20.574 0,9.648 -5.25,20.859 -15.89,20.859 -10.93,0 -16.04,-10.219 -16.04,-20.152 0,-9.934 4.83,-21.281 16.04,-21.281 z m -36.47,47.961 c 0,6.812 4.25,11.355 10.21,11.355 5.68,0 8.94,-3.125 10.22,-8.516 3.83,6.243 11.78,9.364 19.44,9.364 22,0 32.92,-20.575 32.92,-40.446 0,-19.297 -13.05,-38.457 -33.63,-38.457 -6.38,0 -13.34,2.414 -18.73,7.098 v -24.977 c 0,-6.812 -4.26,-11.351 -10.22,-11.351 -5.96,0 -10.21,4.539 -10.21,11.351 v 84.579" /><path
         id="path110"
         style="fill:#0a8137;fill-opacity:1;fill-rule:nonzero;stroke:none"
         d="m 1221.17,168.352 c 10.64,0 15.89,11.062 15.89,20.574 0,9.648 -5.25,20.859 -15.89,20.859 -10.93,0 -16.04,-10.219 -16.04,-20.152 0,-9.934 4.83,-21.281 16.04,-21.281 z m -36.47,47.961 c 0,6.812 4.25,11.355 10.21,11.355 5.68,0 8.94,-3.125 10.22,-8.516 3.83,6.243 11.78,9.364 19.44,9.364 22,0 32.93,-20.575 32.93,-40.446 0,-19.297 -13.06,-38.457 -33.64,-38.457 -6.38,0 -13.34,2.414 -18.73,7.098 v -24.977 c 0,-6.812 -4.26,-11.351 -10.22,-11.351 -5.96,0 -10.21,4.539 -10.21,11.351 v 84.579" /><path
         id="path112"
         style="fill:#0a8137;fill-opacity:1;fill-rule:nonzero;stroke:none"
         d="m 1287.13,188.926 c 0,-9.793 5.11,-20.574 16.18,-20.574 11.07,0 16.18,10.781 16.18,20.574 0,9.789 -4.97,20.859 -16.18,20.859 -11.21,0 -16.18,-11.07 -16.18,-20.859 z m 52.8,0 c 0,-21.289 -14.62,-39.313 -36.62,-39.313 -21.99,0 -36.61,18.024 -36.61,39.313 0,20.719 15.04,39.59 36.61,39.59 21.57,0 36.62,-18.871 36.62,-39.59" /><path
         id="path114"
         style="fill:#0a8137;fill-opacity:1;fill-rule:nonzero;stroke:none"
         d="m 1351.83,217.445 c 0,6.813 5.4,10.223 10.5,10.223 5.39,0 9.94,-1.988 9.94,-8.516 h 0.28 c 3.83,5.672 7.95,8.516 14.33,8.516 4.97,0 9.94,-3.551 9.94,-10.93 0,-6.668 -6.1,-7.093 -12.21,-9.937 -6.1,-2.836 -12.34,-5.531 -12.34,-13.621 v -31.36 c 0,-6.808 -4.26,-11.351 -10.22,-11.351 -5.96,0 -10.22,4.543 -10.22,11.351 v 55.625" /><path
         id="path116"
         style="fill:#0a8137;fill-opacity:1;fill-rule:nonzero;stroke:none"
         d="m 1407.88,208.93 h -4.54 c -5.54,0 -8.94,3.41 -8.94,8.941 0,5.113 3.83,8.942 8.94,8.942 h 4.54 v 12.207 c 0,6.808 4.26,11.351 10.22,11.351 5.96,0 10.22,-4.543 10.22,-11.351 v -12.207 h 5.81 c 5.25,0 9.8,-2.415 9.8,-8.942 0,-6.387 -4.55,-8.941 -9.8,-8.941 h -5.81 v -47.11 c 0,-6.808 -4.26,-11.351 -10.22,-11.351 -5.96,0 -10.22,4.543 -10.22,11.351 v 47.11" /><path
         id="path118"
         style="fill:#0a8137;fill-opacity:1;fill-rule:nonzero;stroke:none"
         d="m 1448.17,216.313 c 0,6.812 4.26,11.355 10.22,11.355 5.96,0 10.21,-4.543 10.21,-11.355 V 161.82 c 0,-6.808 -4.25,-11.351 -10.21,-11.351 -5.96,0 -10.22,4.543 -10.22,11.351 z m 21.71,30.792 c 0,-6.386 -5.1,-11.777 -11.49,-11.777 -6.1,0 -11.5,5.531 -11.5,11.777 0,5.821 5.4,11.211 11.5,11.211 6.1,0 11.49,-5.25 11.49,-11.211" /><path
         id="path120"
         style="fill:#0a8137;fill-opacity:1;fill-rule:nonzero;stroke:none"
         d="m 1483.5,216.313 c 0,6.812 4.25,11.355 10.22,11.355 5.24,0 8.65,-2.844 9.36,-7.527 3.98,5.539 10.08,8.375 19.73,8.375 16.03,0 27.95,-10.215 27.95,-27.528 V 161.82 c 0,-6.808 -4.26,-11.351 -10.21,-11.351 -5.97,0 -10.22,4.543 -10.22,11.351 v 35.618 c 0,9.507 -5.96,14.046 -13.34,14.046 -8.37,0 -13.05,-6.097 -13.05,-14.046 V 161.82 c 0,-6.808 -4.26,-11.351 -10.22,-11.351 -5.97,0 -10.22,4.543 -10.22,11.351 v 54.493" /><path
         id="path122"
         style="fill:#0a8137;fill-opacity:1;fill-rule:nonzero;stroke:none"
         d="m 1599.28,209.785 c -10.64,0 -15.89,-11.07 -15.89,-20.574 0,-10.93 5.25,-20.859 15.89,-20.859 10.93,0 16.04,10.214 16.04,20.144 0,9.938 -4.83,21.289 -16.04,21.289 z m 36.47,-52.504 c 0,-24.551 -16.03,-36.898 -39.3,-36.898 -8.38,0 -32.22,4.113 -32.22,15.324 0,3.836 4.26,8.941 8.23,8.941 6.53,0 13.77,-6.386 25.55,-6.386 9.93,0 17.31,5.82 17.31,16.176 v 4.832 h -0.29 c -4.25,-6.247 -11.21,-9.657 -20.57,-9.657 -21.43,0 -31.51,18.879 -31.51,39.168 0,20.578 13.06,39.735 33.64,39.735 6.95,0 14.9,-3.121 18.73,-9.364 1.28,5.391 4.54,8.516 10.22,8.516 5.95,0 10.21,-4.543 10.21,-11.355 v -59.032" /><path
         id="path124"
         style="fill:#0a8137;fill-opacity:1;fill-rule:nonzero;stroke:none"
         d="m 1687.38,213.613 c -0.56,1.563 -0.99,3.125 -0.99,5.254 0,5.11 5.39,8.801 9.65,8.801 4.97,0 8.52,-2.703 10.22,-7.242 l 14.05,-38.453 15.04,38.453 c 1.7,4.539 5.25,7.242 10.22,7.242 4.25,0 9.64,-3.691 9.64,-8.801 0,-2.129 -0.28,-3.691 -0.99,-5.254 l -34.2,-85.14 c -1.7,-4.258 -4.82,-8.09 -9.65,-8.09 -6.95,0 -10.64,4.398 -10.64,8.797 0,1.988 0.57,4.117 1.28,5.961 l 8.94,22.14 -22.57,56.332" /><path
         id="path126"
         style="fill:#0a8137;fill-opacity:1;fill-rule:nonzero;stroke:none"
         d="m 1781.74,188.926 c 0,-9.793 5.11,-20.574 16.18,-20.574 11.07,0 16.18,10.781 16.18,20.574 0,9.789 -4.97,20.859 -16.18,20.859 -11.21,0 -16.18,-11.07 -16.18,-20.859 z m 52.8,0 c 0,-21.289 -14.62,-39.313 -36.62,-39.313 -21.99,0 -36.61,18.024 -36.61,39.313 0,20.719 15.04,39.59 36.61,39.59 21.57,0 36.62,-18.871 36.62,-39.59" /><path
         id="path128"
         style="fill:#0a8137;fill-opacity:1;fill-rule:nonzero;stroke:none"
         d="m 1846.72,216.313 c 0,6.812 4.26,11.355 10.22,11.355 5.96,0 10.22,-4.543 10.22,-11.355 v -36.469 c 0,-8.516 6.38,-13.199 13.19,-13.199 6.81,0 13.2,4.683 13.2,13.199 v 36.469 c 0,6.812 4.26,11.355 10.22,11.355 5.96,0 10.21,-4.543 10.21,-11.355 v -36.899 c 0,-18.164 -12.06,-29.801 -33.63,-29.801 -21.57,0 -33.63,11.637 -33.63,29.801 v 36.899" /><path
         id="path130"
         style="fill:#0a8137;fill-opacity:1;fill-rule:nonzero;stroke:none"
         d="m 1928.87,217.445 c 0,6.813 5.4,10.223 10.51,10.223 5.39,0 9.93,-1.988 9.93,-8.516 h 0.28 c 3.83,5.672 7.95,8.516 14.34,8.516 4.96,0 9.93,-3.551 9.93,-10.93 0,-6.668 -6.1,-7.093 -12.2,-9.937 -6.11,-2.836 -12.35,-5.531 -12.35,-13.621 v -31.36 c 0,-6.808 -4.26,-11.351 -10.22,-11.351 -5.96,0 -10.22,4.543 -10.22,11.351 v 55.625" /><path
         id="path132"
         style="fill:#0a8137;fill-opacity:1;fill-rule:nonzero;stroke:none"
         d="m 2021.24,216.313 c 0,6.812 4.26,11.355 10.22,11.355 5.96,0 10.21,-4.543 10.21,-11.355 V 161.82 c 0,-6.808 -4.25,-11.351 -10.21,-11.351 -5.96,0 -10.22,4.543 -10.22,11.351 z m 21.71,30.792 c 0,-6.386 -5.1,-11.777 -11.49,-11.777 -6.1,0 -11.49,5.531 -11.49,11.777 0,5.821 5.39,11.211 11.49,11.211 6.1,0 11.49,-5.25 11.49,-11.211" /><path
         id="path134"
         style="fill:#0a8137;fill-opacity:1;fill-rule:nonzero;stroke:none"
         d="m 2056.57,216.313 c 0,6.812 4.26,11.355 10.22,11.355 5.25,0 8.65,-2.844 9.36,-7.527 3.98,5.539 10.08,8.375 19.72,8.375 16.04,0 27.96,-10.215 27.96,-27.528 V 161.82 c 0,-6.808 -4.25,-11.351 -10.21,-11.351 -5.96,0 -10.22,4.543 -10.22,11.351 v 35.618 c 0,9.507 -5.96,14.046 -13.34,14.046 -8.37,0 -13.05,-6.097 -13.05,-14.046 V 161.82 c 0,-6.808 -4.26,-11.351 -10.22,-11.351 -5.96,0 -10.22,4.543 -10.22,11.351 v 54.493" /><path
         id="path136"
         style="fill:#0a8137;fill-opacity:1;fill-rule:nonzero;stroke:none"
         d="m 2172.36,209.785 c -10.65,0 -15.9,-11.211 -15.9,-20.859 0,-9.512 5.25,-20.574 15.9,-20.574 11.21,0 16.03,11.347 16.03,21.281 0,9.933 -5.1,20.152 -16.03,20.152 z m 36.46,-47.965 c 0,-6.808 -4.25,-11.351 -10.21,-11.351 -5.68,0 -8.95,3.121 -10.22,8.511 -3.83,-6.242 -11.77,-9.367 -18.73,-9.367 -20.58,0 -33.63,19.16 -33.63,38.457 0,19.871 10.93,40.446 32.92,40.446 7.09,0 14.04,-2.411 19.44,-7.094 v 27.812 c 0,6.813 4.26,11.352 10.22,11.352 5.96,0 10.21,-4.539 10.21,-11.352 V 161.82" /><path
         id="path138"
         style="fill:#0a8137;fill-opacity:1;fill-rule:nonzero;stroke:none"
         d="m 2272.52,195.879 c -1.13,8.941 -6.8,15.605 -16.31,15.605 -9.09,0 -15.18,-6.953 -16.18,-15.605 z m -32.07,-13.621 c 1.43,-10.078 9.8,-14.762 19.31,-14.762 10.5,0 17.74,8.231 23.13,8.231 4.4,0 8.37,-4.399 8.37,-8.797 0,-8.801 -18.16,-17.317 -33.34,-17.317 -22.99,0 -38.33,16.75 -38.33,39.313 0,20.719 15.05,39.59 36.62,39.59 22.13,0 36.75,-20.153 36.75,-37.176 0,-6.106 -2.69,-9.082 -8.94,-9.082 h -43.57" /><path
         id="path140"
         style="fill:#0a8137;fill-opacity:1;fill-rule:nonzero;stroke:none"
         d="m 2340.2,168.352 c 10.64,0 15.9,11.062 15.9,20.574 0,9.648 -5.26,20.859 -15.9,20.859 -10.93,0 -16.03,-10.219 -16.03,-20.152 0,-9.934 4.82,-21.281 16.03,-21.281 z m -36.46,47.961 c 0,6.812 4.25,11.355 10.21,11.355 5.67,0 8.94,-3.125 10.22,-8.516 3.83,6.243 11.77,9.364 19.44,9.364 21.99,0 32.92,-20.575 32.92,-40.446 0,-19.297 -13.06,-38.457 -33.63,-38.457 -6.38,0 -13.34,2.414 -18.73,7.098 v -24.977 c 0,-6.812 -4.26,-11.351 -10.22,-11.351 -5.96,0 -10.21,4.539 -10.21,11.351 v 84.579" /><path
         id="path142"
         style="fill:#0a8137;fill-opacity:1;fill-rule:nonzero;stroke:none"
         d="m 2437.24,195.879 c -1.13,8.941 -6.81,15.605 -16.32,15.605 -9.08,0 -15.17,-6.953 -16.17,-15.605 z m -32.07,-13.621 c 1.43,-10.078 9.8,-14.762 19.31,-14.762 10.5,0 17.73,8.231 23.12,8.231 4.41,0 8.38,-4.399 8.38,-8.797 0,-8.801 -18.16,-17.317 -33.35,-17.317 -22.99,0 -38.32,16.75 -38.32,39.313 0,20.719 15.05,39.59 36.61,39.59 22.14,0 36.76,-20.153 36.76,-37.176 0,-6.106 -2.69,-9.082 -8.93,-9.082 h -43.58" /><path
         id="path144"
         style="fill:#0a8137;fill-opacity:1;fill-rule:nonzero;stroke:none"
         d="m 2468.46,216.313 c 0,6.812 4.26,11.355 10.22,11.355 5.25,0 8.65,-2.844 9.36,-7.527 3.98,5.539 10.08,8.375 19.73,8.375 16.03,0 27.96,-10.215 27.96,-27.528 V 161.82 c 0,-6.808 -4.26,-11.351 -10.23,-11.351 -5.95,0 -10.21,4.543 -10.21,11.351 v 35.618 c 0,9.507 -5.96,14.046 -13.34,14.046 -8.37,0 -13.06,-6.097 -13.06,-14.046 V 161.82 c 0,-6.808 -4.26,-11.351 -10.21,-11.351 -5.96,0 -10.22,4.543 -10.22,11.351 v 54.493" /><path
         id="path146"
         style="fill:#0a8137;fill-opacity:1;fill-rule:nonzero;stroke:none"
         d="m 2584.24,209.785 c -10.64,0 -15.9,-11.211 -15.9,-20.859 0,-9.512 5.26,-20.574 15.9,-20.574 11.21,0 16.04,11.347 16.04,21.281 0,9.933 -5.11,20.152 -16.04,20.152 z m 36.47,-47.965 c 0,-6.808 -4.26,-11.351 -10.22,-11.351 -5.67,0 -8.94,3.121 -10.21,8.511 -3.84,-6.242 -11.78,-9.367 -18.73,-9.367 -20.58,0 -33.63,19.16 -33.63,38.457 0,19.871 10.92,40.446 32.91,40.446 7.09,0 14.05,-2.411 19.45,-7.094 v 27.812 c 0,6.813 4.26,11.352 10.21,11.352 5.96,0 10.22,-4.539 10.22,-11.352 V 161.82" /><path
         id="path148"
         style="fill:#0a8137;fill-opacity:1;fill-rule:nonzero;stroke:none"
         d="m 2684.41,195.879 c -1.13,8.941 -6.81,15.605 -16.32,15.605 -9.08,0 -15.17,-6.953 -16.17,-15.605 z m -32.07,-13.621 c 1.42,-10.078 9.79,-14.762 19.31,-14.762 10.49,0 17.73,8.231 23.12,8.231 4.4,0 8.38,-4.399 8.38,-8.797 0,-8.801 -18.16,-17.317 -33.35,-17.317 -22.99,0 -38.32,16.75 -38.32,39.313 0,20.719 15.05,39.59 36.61,39.59 22.14,0 36.76,-20.153 36.76,-37.176 0,-6.106 -2.7,-9.082 -8.94,-9.082 h -43.57" /><path
         id="path150"
         style="fill:#0a8137;fill-opacity:1;fill-rule:nonzero;stroke:none"
         d="m 2715.62,216.313 c 0,6.812 4.26,11.355 10.21,11.355 5.26,0 8.66,-2.844 9.37,-7.527 3.97,5.539 10.08,8.375 19.73,8.375 16.03,0 27.96,-10.215 27.96,-27.528 V 161.82 c 0,-6.808 -4.26,-11.351 -10.23,-11.351 -5.96,0 -10.21,4.543 -10.21,11.351 v 35.618 c 0,9.507 -5.96,14.046 -13.34,14.046 -8.37,0 -13.06,-6.097 -13.06,-14.046 V 161.82 c 0,-6.808 -4.26,-11.351 -10.22,-11.351 -5.95,0 -10.21,4.543 -10.21,11.351 v 54.493" /><path
         id="path152"
         style="fill:#0a8137;fill-opacity:1;fill-rule:nonzero;stroke:none"
         d="m 2848.85,205.813 c -5.1,0 -9.65,3.972 -16.18,3.972 -11.63,0 -17.17,-10.359 -17.17,-20.859 0,-10.078 6.11,-20.574 17.17,-20.574 5.12,0 12.77,4.25 15.19,4.25 4.82,0 8.8,-4.11 8.8,-8.942 0,-10.496 -17.6,-14.047 -24.98,-14.047 -22,0 -36.61,18.024 -36.61,39.313 0,20.719 15.04,39.59 36.61,39.59 8.09,0 24.98,-2.981 24.98,-12.914 0,-4.258 -2.98,-9.789 -7.81,-9.789" /><path
         id="path154"
         style="fill:#0a8137;fill-opacity:1;fill-rule:nonzero;stroke:none"
         d="m 2915.83,195.879 c -1.14,8.941 -6.81,15.605 -16.32,15.605 -9.09,0 -15.18,-6.953 -16.18,-15.605 z m -32.08,-13.621 c 1.43,-10.078 9.8,-14.762 19.31,-14.762 10.5,0 17.74,8.231 23.13,8.231 4.4,0 8.38,-4.399 8.38,-8.797 0,-8.801 -18.17,-17.317 -33.35,-17.317 -22.99,0 -38.32,16.75 -38.32,39.313 0,20.719 15.04,39.59 36.61,39.59 22.14,0 36.75,-20.153 36.75,-37.176 0,-6.106 -2.69,-9.082 -8.94,-9.082 h -43.57" /></g></g></svg>